<svg width="192" height="192" viewBox="0 0 192 192" fill="none" xmlns="http://www.w3.org/2000/svg">
<path d="M192 0H0V192H192V0Z" fill="#B2EFFF"/>
<path d="M19.749 125.282V109.563C19.749 104.249 16.76 103.474 12 104.027V87.974C16.761 88.528 19.749 87.753 19.749 82.439V66.719C19.749 52.327 27.167 44.136 44.104 45.242V61.184C39.343 60.63 36.355 61.405 36.355 66.719V82.439C36.355 88.528 34.473 93.177 30.488 95.945C34.473 98.823 36.355 103.473 36.355 109.562V125.281C36.355 130.594 39.344 131.369 44.104 130.817V146.757C27.167 147.864 19.749 139.672 19.749 125.282Z" fill="#1F6C80"/>
<path d="M122.909 55.636V133C122.909 147.861 110.861 159.909 96 159.909C81.139 159.909 69.091 147.861 69.091 133V48.909C69.091 39.621 76.621 32.091 85.909 32.091C95.197 32.091 102.727 39.621 102.727 48.909V119.545C102.727 123.26 99.715 126.272 96 126.272C92.285 126.272 89.273 123.26 89.273 119.545V55.636H79.182V119.545C79.182 128.833 86.712 136.363 96 136.363C105.288 136.363 112.818 128.833 112.818 119.545V48.909C112.818 34.048 100.771 22 85.909 22C71.047 22 59 34.048 59 48.909V133C59 153.435 75.565 170 96 170C116.435 170 133 153.435 133 133V55.636H122.909Z" fill="#1F6C80"/>
<path d="M147.896 130.817C152.657 131.37 155.646 130.595 155.646 125.281V109.562C155.646 103.473 157.527 98.823 161.513 95.945C157.527 93.177 155.646 88.528 155.646 82.439V66.719C155.646 61.406 152.657 60.63 147.896 61.184V45.243C164.835 44.136 172.251 52.328 172.251 66.72V82.44C172.251 87.753 175.24 88.529 180 87.975V104.027C175.241 103.474 172.251 104.248 172.251 109.563V125.282C172.251 139.673 164.834 147.864 147.896 146.758V130.817Z" fill="#1F6C80"/>
<path opacity="0.8" d="M89.273 57.636H79.182V55.636H89.273V57.636ZM69.091 133V135C69.091 149.861 81.139 161.909 96 161.909C110.861 161.909 122.909 149.861 122.909 135V133C122.909 147.861 110.861 159.909 96 159.909C81.139 159.909 69.091 147.861 69.091 133ZM85.909 24C100.77 24 112.818 36.048 112.818 50.909V48.909C112.818 34.048 100.771 22 85.909 22C71.048 22 59 34.048 59 48.909V50.909C59 36.048 71.048 24 85.909 24ZM172.251 68.719V66.719C172.251 52.327 164.834 44.136 147.896 45.242V47.242C164.835 46.136 172.251 54.328 172.251 68.719ZM161.513 97.945C161.077 97.642 160.677 97.308 160.292 96.961C157.149 99.866 155.646 104.139 155.646 109.562V111.562C155.646 105.473 157.527 100.823 161.513 97.945ZM155.646 127.281V125.281C155.646 130.594 152.657 131.369 147.896 130.817V132.817C152.657 133.37 155.646 132.595 155.646 127.281ZM102.727 121.545V119.545C102.727 123.26 99.715 126.272 96 126.272C92.285 126.272 89.273 123.26 89.273 119.545V121.545C89.273 125.26 92.285 128.272 96 128.272C99.715 128.272 102.727 125.261 102.727 121.545ZM122.909 57.636H133V55.636H122.909V57.636ZM19.749 66.719V68.719C19.749 54.327 27.167 46.136 44.104 47.242V45.242C27.167 44.136 19.749 52.328 19.749 66.719ZM172.251 82.439V84.439C172.251 89.752 175.24 90.528 180 89.974V87.974C175.241 88.528 172.251 87.753 172.251 82.439ZM36.355 111.562V109.562C36.355 104.139 34.851 99.866 31.709 96.961C31.323 97.308 30.923 97.643 30.488 97.945C34.473 100.823 36.355 105.473 36.355 111.562ZM19.749 84.439V82.439C19.749 87.752 16.76 88.528 12 87.974V89.974C16.761 90.528 19.749 89.753 19.749 84.439ZM36.355 125.281V127.281C36.355 132.594 39.344 133.369 44.104 132.817V130.817C39.344 131.37 36.355 130.595 36.355 125.281Z" fill="#2FA2BF"/>
<path opacity="0.8" d="M102.727 46.909V48.909C102.727 39.621 95.197 32.091 85.909 32.091C76.621 32.091 69.091 39.621 69.091 48.909V46.909C69.091 37.621 76.621 30.091 85.909 30.091C95.198 30.091 102.727 37.621 102.727 46.909ZM30.488 93.945C30.924 94.26 31.324 94.604 31.709 94.961C34.852 92.134 36.355 87.863 36.355 82.439V80.439C36.355 86.528 34.473 91.177 30.488 93.945ZM155.646 80.439V82.439C155.646 87.862 157.149 92.134 160.292 94.961C160.678 94.604 161.078 94.26 161.513 93.945C157.527 91.177 155.646 86.528 155.646 80.439ZM155.646 66.719V64.719C155.646 59.406 152.657 58.63 147.896 59.184V61.184C152.657 60.63 155.646 61.406 155.646 66.719ZM96 136.364C105.288 136.364 112.818 128.834 112.818 119.546V117.546C112.818 126.834 105.288 134.364 96 134.364C86.712 134.364 79.182 126.834 79.182 117.546V119.546C79.182 128.834 86.712 136.364 96 136.364ZM19.749 123.281V125.281C19.749 139.672 27.167 147.863 44.104 146.757V144.757C27.167 145.864 19.749 137.672 19.749 123.281ZM172.251 107.562V109.562C172.251 104.248 175.24 103.473 180 104.026V102.026C175.241 101.473 172.251 102.248 172.251 107.562ZM147.896 144.757V146.757C164.835 147.864 172.251 139.672 172.251 125.281V123.281C172.251 137.672 164.835 145.864 147.896 144.757ZM36.355 64.719V66.719C36.355 61.406 39.344 60.63 44.104 61.184V59.184C39.344 58.63 36.355 59.406 36.355 64.719ZM19.749 107.562C19.749 102.248 16.76 101.473 12 102.026V104.026C16.761 103.473 19.749 104.247 19.749 109.562V107.562ZM96 168C75.565 168 59 151.435 59 131V133C59 153.435 75.565 170 96 170C116.435 170 133 153.435 133 133V131C133 151.435 116.435 168 96 168Z" fill="#113640"/>
<path d="M102.727 48.909V50.909C102.727 41.621 95.197 34.091 85.909 34.091C76.621 34.091 69.091 41.621 69.091 50.909V48.909C69.091 39.621 76.621 32.091 85.909 32.091C95.198 32.091 102.727 39.621 102.727 48.909ZM30.488 95.945C30.924 96.26 31.324 96.604 31.709 96.961C34.852 94.134 36.355 89.863 36.355 84.439V82.439C36.355 88.528 34.473 93.177 30.488 95.945ZM155.646 82.439V84.439C155.646 89.862 157.149 94.134 160.292 96.961C160.678 96.604 161.078 96.26 161.513 95.945C157.527 93.177 155.646 88.528 155.646 82.439ZM155.646 68.719V66.719C155.646 61.406 152.657 60.63 147.896 61.184V63.184C152.657 62.63 155.646 63.406 155.646 68.719ZM96 138.364C105.288 138.364 112.818 130.834 112.818 121.546V119.546C112.818 128.834 105.288 136.364 96 136.364C86.712 136.364 79.182 128.834 79.182 119.546V121.546C79.182 130.834 86.712 138.364 96 138.364ZM19.749 125.281V127.281C19.749 141.672 27.167 149.863 44.104 148.757V146.757C27.167 147.864 19.749 139.672 19.749 125.281ZM172.251 109.562V111.562C172.251 106.248 175.24 105.473 180 106.026V104.026C175.241 103.473 172.251 104.248 172.251 109.562ZM147.896 146.757V148.757C164.835 149.864 172.251 141.672 172.251 127.281V125.281C172.251 139.672 164.835 147.864 147.896 146.757ZM36.355 66.719V68.719C36.355 63.406 39.344 62.63 44.104 63.184V61.184C39.344 60.63 36.355 61.406 36.355 66.719ZM19.749 109.562C19.749 104.248 16.76 103.473 12 104.026V106.026C16.761 105.473 19.749 106.247 19.749 111.562V109.562ZM96 170C75.565 170 59 153.435 59 133V135C59 155.435 75.565 172 96 172C116.435 172 133 155.435 133 135V133C133 153.435 116.435 170 96 170Z" fill="#8CE8FF"/>
</svg>
