<svg width="192" height="192" viewBox="0 0 192 192" fill="none" xmlns="http://www.w3.org/2000/svg">
<rect width="192" height="192" fill="#7DE0BA"/>
<g filter="url(#filter0_dii)">
<path fill-rule="evenodd" clip-rule="evenodd" d="M62.3705 53.7414C53.6613 53.8628 46.4694 46.762 46.348 38.0528C46.2874 29.1615 53.3882 21.9697 62.0367 22C71.0493 22.0303 78.1502 28.8884 78.1502 37.9011C78.2412 46.6406 71.2314 53.6807 62.3705 53.7414ZM82.9144 124.811C88.3159 121.776 93.7478 118.62 99.21 115.434L105.916 110.002C106.948 109.213 117.539 100.14 110.59 89.0029L94.203 62.6023C94.0309 62.2009 93.7866 61.8476 93.5232 61.4666L93.5231 61.4666C93.3684 61.2428 93.207 61.0095 93.0499 60.7512C93.4525 60.6665 93.8108 60.6557 94.1143 60.6466C94.2454 60.6426 94.3663 60.639 94.4761 60.6299C95.9017 60.6299 97.3333 60.6328 98.7689 60.6358H98.769C103.811 60.6463 108.903 60.6569 113.958 60.5388C115.172 60.5085 115.718 60.903 116.386 61.874C117.539 63.7251 118.699 65.5838 119.86 67.4424C121.021 69.3011 122.182 71.1598 123.335 73.0108C125.641 76.713 129.707 77.8358 133.015 75.7116C136.899 73.8302 137.718 69.6425 135.412 65.9403C133.793 63.2922 132.181 60.6516 130.57 58.011L130.557 57.9906C128.941 55.3427 127.325 52.6948 125.702 50.0393C124.457 47.9758 122.879 47.1564 120.482 47.0654C117.583 47.082 114.671 47.0918 111.751 47.1016C104.003 47.1277 96.2034 47.1539 88.4677 47.3082C86.5256 47.3992 84.3407 48.0668 82.702 49.1289C78.8696 51.4634 75.1619 53.9974 71.443 56.5391L71.4429 56.5391L71.4428 56.5392C69.3608 57.9622 67.2752 59.3875 65.1623 60.7816C61.8546 62.9058 60.3677 65.7886 60.3677 69.6121C60.3525 72.2104 60.3449 74.8087 60.3373 77.4109V77.4112L60.3373 77.4128C60.3298 80.0067 60.3222 82.6045 60.307 85.2097C60.2518 85.6148 60.2748 85.9753 60.3014 86.3927C60.3186 86.6631 60.3374 86.9576 60.3374 87.3036C59.7849 87.3496 59.2848 87.3084 58.8504 87.2725C58.7121 87.2611 58.5805 87.2502 58.456 87.2429C55.4973 87.2581 52.5917 87.2581 49.6861 87.2581C46.7805 87.2581 43.8749 87.2581 40.9162 87.2732C36.5768 87.2429 33.7547 89.9436 33.7244 93.9189C33.694 97.8942 36.6679 100.838 40.8252 100.777C47.082 100.757 53.4063 100.764 59.708 100.77L59.725 100.77C62.8617 100.774 65.9928 100.777 69.1072 100.777C72.0507 100.747 73.5377 99.2597 73.568 96.1645C73.5832 93.9948 73.568 91.7796 73.5529 89.5643C73.5377 87.3491 73.5225 85.1339 73.5377 82.9642C73.5984 82.8124 73.5984 82.8124 73.6894 82.1448C74.6162 83.5506 75.5391 84.9473 76.4582 86.3383L76.4587 86.339C80.0236 91.7341 83.5309 97.0421 86.9807 102.446C86.4345 102.932 85.949 103.235 85.3421 103.508C84.007 104.34 82.6666 105.182 81.3222 106.027L81.3217 106.027C77.0745 108.696 72.7874 111.39 68.5003 113.856C65.7389 115.525 64.6464 117.831 64.5857 120.957L64.5858 120.958C64.6464 134.522 64.7071 148.086 64.6464 161.559C64.6768 166.596 67.8934 169.813 73.0218 169.995C77.9985 170.117 81.1544 167.901 82.0648 163.926C82.2165 163.107 82.2165 162.257 82.1558 161.529C82.1255 155.793 82.1027 150.057 82.0799 144.322C82.0572 138.587 82.0344 132.852 82.0041 127.117C82.0041 127.064 82.0039 127.012 82.0037 126.96C82.0005 126.098 81.9981 125.441 82.9144 124.811ZM37.7603 81.0827L39.4597 84.0263C39.9149 83.9656 40.37 83.9352 40.8556 83.9352H46.166H47.9868L49.6254 81.0827C50.4144 79.6869 49.413 77.9572 47.835 77.9572H39.5507C37.9728 77.9875 36.9713 79.7172 37.7603 81.0827ZM140.632 134.079L140.633 134.079L140.635 134.077C145.265 132.141 149.899 130.203 154.56 128.27C157.716 127.299 160.022 125.084 160.083 121.473C160.053 117.649 158.809 114.372 155.319 112.248C152.952 110.761 150.464 110.973 147.945 112.035C144.622 113.386 141.337 114.743 138.052 116.101C134.768 117.459 131.483 118.817 128.16 120.168L128.023 120.226L128.023 120.226C127.435 120.479 126.859 120.727 126.127 120.896C126.063 120.748 126 120.602 125.937 120.456L125.937 120.456L125.937 120.456L125.936 120.455C125.728 119.974 125.524 119.503 125.338 119.015C123.682 114.94 123.121 113.66 122.298 111.783C121.779 110.599 121.156 109.176 120.088 106.664L120.053 106.583L120.053 106.583L120.053 106.583C119.852 106.11 118.956 104.001 118.085 102.203C116.416 107.605 112.805 111.853 109.679 114.402L105.552 117.77C107.039 121.265 108.503 124.791 109.955 128.289C111.377 131.716 112.789 135.117 114.201 138.436C115.839 142.472 118.024 143.534 122.212 141.743C128.382 139.203 134.503 136.643 140.63 134.079L140.631 134.079L140.632 134.079ZM45.984 103.478H47.9261C50.4447 103.478 52.5993 105.056 53.0545 107.241L55.2393 117.801C56.4532 123.688 51.962 129.211 45.9536 129.211H41.4018C35.3934 129.211 30.9022 123.688 32.116 117.801L34.3616 107.241C34.8168 105.056 36.9713 103.478 39.49 103.478H41.4321H45.984Z" fill="#1E382F"/>
</g>
<defs>
<filter id="filter0_dii" x="31.917" y="21.9999" width="128.166" height="150" filterUnits="userSpaceOnUse" color-interpolation-filters="sRGB">
<feFlood flood-opacity="0" result="BackgroundImageFix"/>
<feColorMatrix in="SourceAlpha" type="matrix" values="0 0 0 0 0 0 0 0 0 0 0 0 0 0 0 0 0 0 127 0"/>
<feOffset dy="2"/>
<feColorMatrix type="matrix" values="0 0 0 0 0.364706 0 0 0 0 0.654902 0 0 0 0 0.545098 0 0 0 0.8 0"/>
<feBlend mode="normal" in2="BackgroundImageFix" result="effect1_dropShadow"/>
<feBlend mode="normal" in="SourceGraphic" in2="effect1_dropShadow" result="shape"/>
<feColorMatrix in="SourceAlpha" type="matrix" values="0 0 0 0 0 0 0 0 0 0 0 0 0 0 0 0 0 0 127 0" result="hardAlpha"/>
<feOffset dy="2"/>
<feComposite in2="hardAlpha" operator="arithmetic" k2="-1" k3="1"/>
<feColorMatrix type="matrix" values="0 0 0 0 1 0 0 0 0 1 0 0 0 0 1 0 0 0 0.15 0"/>
<feBlend mode="normal" in2="shape" result="effect2_innerShadow"/>
<feColorMatrix in="SourceAlpha" type="matrix" values="0 0 0 0 0 0 0 0 0 0 0 0 0 0 0 0 0 0 127 0" result="hardAlpha"/>
<feOffset dy="-2"/>
<feComposite in2="hardAlpha" operator="arithmetic" k2="-1" k3="1"/>
<feColorMatrix type="matrix" values="0 0 0 0 0.0823529 0 0 0 0 0.156863 0 0 0 0 0.129412 0 0 0 1 0"/>
<feBlend mode="normal" in2="effect2_innerShadow" result="effect3_innerShadow"/>
</filter>
</defs>
</svg>
