<svg width="192" height="192" viewBox="0 0 192 192" fill="none" xmlns="http://www.w3.org/2000/svg">
<path d="M192 0H0V192H192V0Z" fill="#EFB8F2"/>
<path d="M133.381 23.254H58.619C55.761 23.254 53.12 24.779 51.691 27.254L14.309 92C12.88 94.475 12.88 97.525 14.309 100L51.69 164.746C53.119 167.221 55.76 168.746 58.618 168.746H133.38C136.238 168.746 138.879 167.221 140.308 164.746L177.691 100C179.12 97.525 179.12 94.475 177.691 92L140.31 27.254C138.88 24.779 136.239 23.254 133.381 23.254Z" fill="#39223B"/>
<path d="M92 32.309L42.842 60.691C40.367 62.12 38.842 64.761 38.842 67.619V124.381C38.842 127.239 40.367 129.88 42.842 131.309L92 159.691C94.475 161.12 97.525 161.12 100 159.691L149.158 131.31C151.633 129.881 153.158 127.24 153.158 124.382V67.62C153.158 64.762 151.633 62.121 149.158 60.692L100 32.309C97.525 30.88 94.475 30.88 92 32.309Z" fill="#F4CFF7"/>
<path d="M75 96H67C65.895 96 65 95.105 65 94V66C65 64.895 65.895 64 67 64H75C76.105 64 77 64.895 77 66V94C77 95.105 76.105 96 75 96Z" fill="#39223B"/>
<path d="M125 96H117C115.895 96 115 95.105 115 94V66C115 64.895 115.895 64 117 64H125C126.105 64 127 64.895 127 66V94C127 95.105 126.105 96 125 96Z" fill="#39223B"/>
<path d="M102 132H90C88.9 132 88 131.1 88 130V124C88 119.6 91.6 116 96 116C100.4 116 104 119.6 104 124V130C104 131.1 103.1 132 102 132Z" fill="#39223B"/>
<path d="M104 124V126C104 121.6 100.4 118 96 118C91.6 118 88 121.6 88 126V124C88 119.6 91.6 116 96 116C100.4 116 104 119.6 104 124ZM75 64H67C65.895 64 65 64.895 65 66V68C65 66.895 65.895 66 67 66H75C76.105 66 77 66.895 77 68V66C77 64.895 76.105 64 75 64ZM125 64H117C115.895 64 115 64.895 115 66V68C115 66.895 115.895 66 117 66H125C126.105 66 127 66.895 127 68V66C127 64.895 126.105 64 125 64Z" fill="#734576"/>
<path d="M13.302 97C13.087 95.295 13.422 93.537 14.309 92L51.69 27.254C53.119 24.779 55.76 23.254 58.618 23.254H133.38C136.238 23.254 138.879 24.779 140.308 27.254L177.691 92C178.578 93.537 178.913 95.295 178.698 97C178.567 95.959 178.233 94.938 177.691 94L140.31 29.254C138.881 26.779 136.24 25.254 133.382 25.254H58.619C55.761 25.254 53.12 26.779 51.691 29.254L14.309 94C13.768 94.938 13.433 95.959 13.302 97ZM42.842 133.309L92 161.691C94.475 163.12 97.525 163.12 100 161.691L149.158 133.31C151.633 131.881 153.158 129.24 153.158 126.382V69.62V124.382C153.158 127.24 151.633 129.881 149.158 131.31L100 159.691C97.525 161.12 94.475 161.12 92 159.691L42.842 131.31C40.367 129.881 38.842 127.24 38.842 124.382V126.382C38.842 129.239 40.367 131.88 42.842 133.309Z" fill="#734576"/>
<path d="M104 130V132C104 133.1 103.1 134 102 134H90C88.9 134 88 133.1 88 132V130C88 131.1 88.9 132 90 132H102C103.1 132 104 131.1 104 130ZM75 96H67C65.895 96 65 95.105 65 94V96C65 97.105 65.895 98 67 98H75C76.105 98 77 97.105 77 96V94C77 95.105 76.105 96 75 96ZM125 96H117C115.895 96 115 95.105 115 94V96C115 97.105 115.895 98 117 98H125C126.105 98 127 97.105 127 96V94C127 95.105 126.105 96 125 96Z" fill="#E9A0EE"/>
<path d="M104 128V130C104 131.1 103.1 132 102 132H90C88.9 132 88 131.1 88 130V128C88 129.1 88.9 130 90 130H102C103.1 130 104 129.1 104 128ZM75 94H67C65.895 94 65 93.105 65 92V94C65 95.105 65.895 96 67 96H75C76.105 96 77 95.105 77 94V92C77 93.105 76.105 94 75 94ZM125 94H117C115.895 94 115 93.105 115 92V94C115 95.105 115.895 96 117 96H125C126.105 96 127 95.105 127 94V92C127 93.105 126.105 94 125 94Z" fill="#28182A"/>
<path d="M153.158 65.619V67.619C153.158 64.761 151.633 62.12 149.158 60.691L100 32.309C97.525 30.88 94.475 30.88 92 32.309L42.842 60.691C40.367 62.12 38.842 64.761 38.842 67.619V122.381V65.619C38.842 62.761 40.367 60.12 42.842 58.691L92 30.309C94.475 28.88 97.525 28.88 100 30.309L149.158 58.69C151.633 60.12 153.158 62.761 153.158 65.619ZM177.691 98L140.31 162.746C138.881 165.221 136.24 166.746 133.382 166.746H58.619C55.761 166.746 53.12 165.221 51.691 162.746L14.309 98C13.767 97.062 13.433 96.041 13.302 95C13.087 96.705 13.422 98.463 14.309 100L51.69 164.746C53.119 167.221 55.76 168.746 58.618 168.746H133.38C136.238 168.746 138.879 167.221 140.308 164.746L177.691 100C178.578 98.463 178.913 96.705 178.698 95C178.567 96.041 178.232 97.062 177.691 98Z" fill="#28182A"/>
<path d="M153.158 67.619V69.619C153.158 66.761 151.633 64.12 149.158 62.691L100 34.309C97.525 32.88 94.475 32.88 92 34.309L42.842 62.691C40.367 64.12 38.842 66.761 38.842 69.619V124.381V67.619C38.842 64.761 40.367 62.12 42.842 60.691L92 32.309C94.475 30.88 97.525 30.88 100 32.309L149.158 60.69C151.633 62.12 153.158 64.761 153.158 67.619ZM177.691 100L140.31 164.746C138.881 167.221 136.24 168.746 133.382 168.746H58.619C55.761 168.746 53.12 167.221 51.691 164.746L14.309 100C13.767 99.062 13.433 98.041 13.302 97C13.087 98.705 13.422 100.463 14.309 102L51.69 166.746C53.119 169.221 55.76 170.746 58.618 170.746H133.38C136.238 170.746 138.879 169.221 140.308 166.746L177.691 102C178.578 100.463 178.913 98.705 178.698 97C178.567 98.041 178.232 99.062 177.691 100Z" fill="#E9A0EE"/>
</svg>
