<svg width="192" height="192" viewBox="0 0 192 192" fill="none" xmlns="http://www.w3.org/2000/svg">
<rect width="192" height="192" fill="#B2EFFF"/>
<g filter="url(#filter0_dii)">
<circle cx="96" cy="96" r="74" fill="#2FA2BF"/>
</g>
<g filter="url(#filter1_dii)">
<path d="M137.878 95.2358C137.878 89.582 133.804 84.8643 128.438 83.8567L141.273 46H80.6021L93.4569 83.9334C88.2777 85.0861 84.3927 89.7146 84.3927 95.2358C84.3927 99.3822 86.5838 103.024 89.8679 105.071C88.2883 107.424 86.4151 109.638 84.2685 111.663C80.8645 114.875 77.0718 117.31 72.9831 118.913C68.865 116.326 67.1241 111.448 68.9322 107.198L69.0737 106.865C69.1621 106.657 69.2509 106.448 69.3393 106.24C73.8624 104.663 77.1182 100.357 77.1182 95.3027C77.1182 88.9167 71.9227 83.7215 65.5367 83.7215C59.1507 83.7215 53.9555 88.9167 53.9555 95.3027C53.9555 98.5259 55.2801 101.445 57.4122 103.546C57.0256 104.37 56.6192 105.208 56.2015 106.066C54.2519 110.07 52.0424 114.609 51.2066 119.649C49.5467 129.658 52.2238 137.659 58.745 142.179C62.7021 144.922 66.7205 146 70.7643 146C78.3791 146 86.0816 142.174 93.6154 138.432C99.0414 135.737 104.652 132.951 110.194 131.584C112.256 131.075 114.378 130.769 116.624 130.445C121.079 129.803 125.685 129.139 129.765 126.775C134.495 124.036 137.732 119.441 138.648 114.168C139.434 109.642 138.488 105.109 136.181 101.264C137.256 99.5071 137.878 97.4429 137.878 95.2358ZM133.331 95.2358C133.331 99.1148 130.175 102.271 126.296 102.271C122.417 102.271 119.261 99.1148 119.261 95.2358C119.261 91.3568 122.417 88.2011 126.296 88.2011C130.175 88.2011 133.331 91.3568 133.331 95.2358ZM134.931 50.5464L123.597 83.9755C123.106 84.0933 122.627 84.2418 122.162 84.4205L110.965 61.5793L99.7358 84.2853C99.2505 84.118 98.7511 83.9805 98.2389 83.8786L86.9436 50.5464H134.931ZM95.9738 88.2011C99.8528 88.2011 103.009 91.3568 103.009 95.2358C103.009 99.1148 99.8528 102.271 95.9738 102.271C92.0952 102.271 88.9391 99.1148 88.9391 95.2358C88.9391 91.3568 92.0952 88.2011 95.9738 88.2011ZM65.5367 88.268C69.416 88.268 72.5717 91.4237 72.5717 95.3027C72.5717 99.1817 69.416 102.338 65.5367 102.338C61.658 102.338 58.502 99.1817 58.502 95.3027C58.502 91.4237 61.658 88.268 65.5367 88.268ZM134.168 113.39C133.484 117.333 131.048 120.778 127.487 122.841C124.166 124.764 120.188 125.338 115.975 125.945C113.719 126.271 111.385 126.607 109.105 127.17C103.077 128.656 97.239 131.556 91.5929 134.361C80.294 139.973 70.5359 144.819 61.3351 138.442C54.5954 133.771 54.9066 125.129 55.6919 120.393C56.4194 116.005 58.3867 111.964 60.2892 108.056C60.6185 107.38 60.9383 106.717 61.252 106.059C62.1957 106.436 63.1991 106.694 64.245 106.81C62.3085 113.202 65.3542 120.151 71.7466 123.435L72.6213 123.885L73.5479 123.555C78.6016 121.755 83.258 118.867 87.3885 114.97C90.0586 112.452 92.353 109.665 94.2396 106.687C94.8056 106.772 95.3846 106.817 95.9738 106.817C102.36 106.817 107.555 101.622 107.555 95.2358C107.555 91.8014 106.051 88.7129 103.669 86.59L110.947 71.872L118.299 86.8705C116.093 88.9807 114.715 91.9493 114.715 95.2358C114.715 101.622 119.91 106.817 126.296 106.817C128.75 106.817 131.026 106.048 132.9 104.742C134.202 107.406 134.687 110.404 134.168 113.39Z" fill="#F5F5F5"/>
</g>
<g filter="url(#filter2_ii)">
<path d="M134.168 113.39C133.484 117.333 131.048 120.778 127.487 122.841C124.166 124.764 120.188 125.338 115.975 125.945C113.719 126.271 111.385 126.607 109.105 127.17C103.077 128.656 97.239 131.556 91.5929 134.361C80.294 139.973 70.5359 144.819 61.3351 138.442C54.5954 133.771 54.9066 125.129 55.6919 120.393C56.4194 116.005 58.3867 111.964 60.2892 108.056C60.6185 107.38 60.9383 106.717 61.252 106.059C62.1957 106.436 63.1991 106.694 64.245 106.81C62.3085 113.202 65.3542 120.151 71.7466 123.435L72.6213 123.885L73.5479 123.555C78.6016 121.755 83.258 118.867 87.3885 114.97C90.0586 112.452 92.353 109.665 94.2396 106.687C94.8056 106.772 95.3846 106.817 95.9738 106.817C102.36 106.817 107.555 101.622 107.555 95.2358C107.555 91.8014 106.051 88.7129 103.669 86.59L110.947 71.872L118.299 86.8705C116.093 88.9807 114.715 91.9493 114.715 95.2358C114.715 101.622 119.91 106.817 126.296 106.817C128.75 106.817 131.026 106.048 132.9 104.742C134.202 107.406 134.687 110.404 134.168 113.39Z" fill="#5DA78B"/>
<path d="M134.931 50.5464L123.597 83.9755C123.106 84.0933 122.627 84.2418 122.162 84.4205L110.965 61.5793L99.7358 84.2853C99.2505 84.118 98.7511 83.9805 98.2389 83.8786L86.9436 50.5464H134.931Z" fill="#5DA78B"/>
</g>
<defs>
<filter id="filter0_dii" x="22" y="22" width="148" height="150" filterUnits="userSpaceOnUse" color-interpolation-filters="sRGB">
<feFlood flood-opacity="0" result="BackgroundImageFix"/>
<feColorMatrix in="SourceAlpha" type="matrix" values="0 0 0 0 0 0 0 0 0 0 0 0 0 0 0 0 0 0 127 0"/>
<feOffset dy="2"/>
<feColorMatrix type="matrix" values="0 0 0 0 0.0666667 0 0 0 0 0.211765 0 0 0 0 0.25098 0 0 0 0.2 0"/>
<feBlend mode="normal" in2="BackgroundImageFix" result="effect1_dropShadow"/>
<feBlend mode="normal" in="SourceGraphic" in2="effect1_dropShadow" result="shape"/>
<feColorMatrix in="SourceAlpha" type="matrix" values="0 0 0 0 0 0 0 0 0 0 0 0 0 0 0 0 0 0 127 0" result="hardAlpha"/>
<feOffset dy="2"/>
<feComposite in2="hardAlpha" operator="arithmetic" k2="-1" k3="1"/>
<feColorMatrix type="matrix" values="0 0 0 0 1 0 0 0 0 1 0 0 0 0 1 0 0 0 0.2 0"/>
<feBlend mode="normal" in2="shape" result="effect2_innerShadow"/>
<feColorMatrix in="SourceAlpha" type="matrix" values="0 0 0 0 0 0 0 0 0 0 0 0 0 0 0 0 0 0 127 0" result="hardAlpha"/>
<feOffset dy="-2"/>
<feComposite in2="hardAlpha" operator="arithmetic" k2="-1" k3="1"/>
<feColorMatrix type="matrix" values="0 0 0 0 0.0666667 0 0 0 0 0.211765 0 0 0 0 0.25098 0 0 0 0.2 0"/>
<feBlend mode="normal" in2="effect2_innerShadow" result="effect3_innerShadow"/>
</filter>
<filter id="filter1_dii" x="50.7266" y="46" width="90.5467" height="102" filterUnits="userSpaceOnUse" color-interpolation-filters="sRGB">
<feFlood flood-opacity="0" result="BackgroundImageFix"/>
<feColorMatrix in="SourceAlpha" type="matrix" values="0 0 0 0 0 0 0 0 0 0 0 0 0 0 0 0 0 0 127 0"/>
<feOffset dy="2"/>
<feColorMatrix type="matrix" values="0 0 0 0 0.0666667 0 0 0 0 0.211765 0 0 0 0 0.25098 0 0 0 0.2 0"/>
<feBlend mode="normal" in2="BackgroundImageFix" result="effect1_dropShadow"/>
<feBlend mode="normal" in="SourceGraphic" in2="effect1_dropShadow" result="shape"/>
<feColorMatrix in="SourceAlpha" type="matrix" values="0 0 0 0 0 0 0 0 0 0 0 0 0 0 0 0 0 0 127 0" result="hardAlpha"/>
<feOffset dy="2"/>
<feComposite in2="hardAlpha" operator="arithmetic" k2="-1" k3="1"/>
<feColorMatrix type="matrix" values="0 0 0 0 1 0 0 0 0 1 0 0 0 0 1 0 0 0 0.1 0"/>
<feBlend mode="normal" in2="shape" result="effect2_innerShadow"/>
<feColorMatrix in="SourceAlpha" type="matrix" values="0 0 0 0 0 0 0 0 0 0 0 0 0 0 0 0 0 0 127 0" result="hardAlpha"/>
<feOffset dy="-2"/>
<feComposite in2="hardAlpha" operator="arithmetic" k2="-1" k3="1"/>
<feColorMatrix type="matrix" values="0 0 0 0 0.258824 0 0 0 0 0.258824 0 0 0 0 0.258824 0 0 0 0.1 0"/>
<feBlend mode="normal" in2="effect2_innerShadow" result="effect3_innerShadow"/>
</filter>
<filter id="filter2_ii" x="55.2881" y="50.5464" width="79.6431" height="90.9191" filterUnits="userSpaceOnUse" color-interpolation-filters="sRGB">
<feFlood flood-opacity="0" result="BackgroundImageFix"/>
<feBlend mode="normal" in="SourceGraphic" in2="BackgroundImageFix" result="shape"/>
<feColorMatrix in="SourceAlpha" type="matrix" values="0 0 0 0 0 0 0 0 0 0 0 0 0 0 0 0 0 0 127 0" result="hardAlpha"/>
<feOffset dy="2"/>
<feComposite in2="hardAlpha" operator="arithmetic" k2="-1" k3="1"/>
<feColorMatrix type="matrix" values="0 0 0 0 0.247059 0 0 0 0 0.439216 0 0 0 0 0.364706 0 0 0 0.6 0"/>
<feBlend mode="normal" in2="shape" result="effect1_innerShadow"/>
<feColorMatrix in="SourceAlpha" type="matrix" values="0 0 0 0 0 0 0 0 0 0 0 0 0 0 0 0 0 0 127 0" result="hardAlpha"/>
<feOffset dy="-2"/>
<feComposite in2="hardAlpha" operator="arithmetic" k2="-1" k3="1"/>
<feColorMatrix type="matrix" values="0 0 0 0 0.247059 0 0 0 0 0.439216 0 0 0 0 0.364706 0 0 0 0.4 0"/>
<feBlend mode="normal" in2="effect1_innerShadow" result="effect2_innerShadow"/>
</filter>
</defs>
</svg>
