<svg width="192" height="192" viewBox="0 0 192 192" fill="none" xmlns="http://www.w3.org/2000/svg">
<path d="M192 0H0V192H192V0Z" fill="#FFB18B"/>
<path d="M154.833 41.321C142.869 31.528 127.105 28.113 109.139 31.4C101.475 29.112 94.256 27.646 87.467 26.962C87.031 26.894 86.596 26.824 86.156 26.766C85.618 26.694 85.085 26.68 84.564 26.716C54.017 24.637 32.713 39.368 21.09 70.77C21.078 70.803 21.066 70.835 21.054 70.868C13.912 91.025 16.237 111.081 27.777 128.868C43.981 153.842 73.329 167.71 88.061 169.22C89.715 169.389 91.481 169.476 93.344 169.476C108.739 169.476 130.599 163.551 147.591 149.418C164.097 135.69 173.554 116.26 174.941 93.23C174.945 93.161 174.949 93.091 174.95 93.022C175.658 70.88 168.513 52.518 154.833 41.321ZM37.29 114.607C31.379 102.41 30.784 89.409 35.573 75.86C44.863 50.804 60.262 39.784 84.294 41.738C98.276 43.669 109.384 52.2 111.34 62.547C112.404 68.172 110.554 73.356 108.806 76.723C104.701 84.489 95.053 98.834 76.537 107.756C60.912 115.284 46.023 115.461 37.29 114.607ZM159.578 92.446C158.408 111.487 151.026 126.79 137.636 137.926C120.973 151.785 99.816 155.274 89.663 154.227C80.896 153.329 61.709 144.68 47.981 129.956C57.976 129.577 70.445 127.49 83.327 121.283C105.805 110.453 117.503 93.052 122.476 83.643C122.481 83.634 122.484 83.624 122.489 83.615C122.492 83.61 122.495 83.606 122.498 83.601C125.333 78.153 128.323 69.602 126.469 59.802C125.477 54.555 123.242 49.664 120.013 45.325C129.878 44.953 138.388 47.503 144.968 52.89C154.922 61.037 160.108 75.082 159.578 92.446Z" fill="#7F361A"/>
<path d="M108.805 76.724C110.553 73.356 112.403 68.173 111.339 62.548C109.384 52.2 98.276 43.669 84.294 41.738C60.262 39.783 44.863 50.803 35.573 75.86C30.784 89.409 31.379 102.41 37.29 114.607C46.023 115.461 60.912 115.285 76.537 107.757C95.053 98.835 104.7 84.489 108.805 76.724Z" fill="#FF7D3D"/>
<path d="M144.968 52.889C138.388 47.503 129.877 44.953 120.013 45.324C123.241 49.663 125.477 54.555 126.469 59.801C128.323 69.602 125.333 78.153 122.498 83.6C122.495 83.605 122.492 83.609 122.489 83.614C122.484 83.623 122.481 83.633 122.476 83.642C117.504 93.051 105.806 110.452 83.327 121.282C70.445 127.489 57.976 129.576 47.981 129.955C61.709 144.679 80.896 153.328 89.663 154.226C99.816 155.273 120.973 151.784 137.636 137.925C151.026 126.789 158.408 111.486 159.578 92.445C160.108 75.082 154.922 61.037 144.968 52.889Z" fill="#F16A25"/>
<path d="M144.968 54.889C154.204 62.449 159.327 75.092 159.595 90.746C159.744 74.171 154.593 60.768 144.968 52.889C138.388 47.503 129.877 44.952 120.013 45.324C120.493 45.969 120.943 46.629 121.378 47.298C130.662 47.202 138.694 49.753 144.968 54.889Z" fill="#FF9764"/>
<path d="M122.475 85.643C122.48 85.634 122.483 85.624 122.488 85.615C122.491 85.61 122.494 85.606 122.497 85.601C124.82 81.138 127.242 74.59 127.024 66.98C126.815 73.735 124.614 79.534 122.497 83.601C122.494 83.606 122.491 83.61 122.488 83.615C122.483 83.624 122.48 83.634 122.475 83.643C117.503 93.052 105.805 110.453 83.326 121.283C70.444 127.49 57.975 129.577 47.98 129.956C48.586 130.606 49.207 131.24 49.833 131.867C59.495 131.308 71.228 129.113 83.326 123.283C105.805 112.453 117.503 95.052 122.475 85.643Z" fill="#FF9764"/>
<path d="M35.573 77.86C44.863 52.804 60.262 41.784 84.294 43.738C98.276 45.669 109.384 54.2 111.34 64.547C111.493 65.355 111.579 66.152 111.621 66.938C111.696 65.523 111.625 64.052 111.34 62.547C109.384 52.2 98.276 43.669 84.294 41.738C60.261 39.784 44.863 50.803 35.573 75.86C33.322 82.229 32.276 88.476 32.397 94.576C32.519 89.112 33.567 83.535 35.573 77.86Z" fill="#FF9764"/>
<path d="M127.023 64.98C127.094 62.687 126.937 60.285 126.468 57.801C125.624 53.334 123.87 49.128 121.377 45.297C120.924 45.302 120.471 45.306 120.012 45.323C123.24 49.662 125.476 54.554 126.468 59.8C126.803 61.573 126.975 63.302 127.023 64.98Z" fill="#BC5227"/>
<path d="M108.805 76.724C110.302 73.84 111.868 69.623 111.62 64.938C111.415 68.813 110.085 72.257 108.805 74.724C104.7 82.49 95.052 96.835 76.536 105.757C60.911 113.285 46.022 113.461 37.289 112.607C34.157 106.144 32.533 99.453 32.396 92.576C32.227 100.157 33.854 107.519 37.289 114.607C46.022 115.461 60.911 115.284 76.536 107.757C95.053 98.835 104.7 84.489 108.805 76.724Z" fill="#F16A25"/>
<path d="M159.578 90.446C158.408 109.487 151.026 124.79 137.636 135.926C120.973 149.785 99.816 153.274 89.663 152.227C81.283 151.369 63.387 143.425 49.834 129.867C49.208 129.903 48.59 129.933 47.981 129.956C61.709 144.68 80.896 153.329 89.663 154.227C99.816 155.274 120.973 151.785 137.636 137.926C151.026 126.79 158.408 111.487 159.578 92.446C159.616 91.193 159.616 89.963 159.595 88.746C159.59 89.312 159.595 89.872 159.578 90.446Z" fill="#BC5227"/>
<path opacity="0.4" d="M21.055 72.868C21.067 72.835 21.078 72.803 21.091 72.77C32.714 41.368 54.017 26.637 84.564 28.717C85.085 28.681 85.618 28.694 86.156 28.766C86.596 28.825 87.031 28.894 87.467 28.962C94.256 29.646 101.475 31.112 109.139 33.4C127.105 30.113 142.869 33.527 154.833 43.321C167.565 53.742 174.627 70.373 174.978 90.476C175.074 69.479 167.984 52.085 154.833 41.321C142.869 31.528 127.105 28.113 109.139 31.4C101.475 29.112 94.256 27.646 87.467 26.962C87.031 26.894 86.596 26.824 86.156 26.766C85.618 26.694 85.085 26.68 84.564 26.717C54.017 24.637 32.713 39.368 21.09 70.77C21.078 70.803 21.066 70.835 21.054 70.868C18.239 78.812 16.918 86.738 17.029 94.517C17.156 87.381 18.481 80.132 21.055 72.868Z" fill="#BC5227"/>
<path opacity="0.4" d="M174.952 91.022C174.95 91.091 174.946 91.161 174.943 91.23C173.556 114.26 164.099 133.69 147.593 147.418C130.601 161.551 108.741 167.476 93.346 167.476C91.483 167.476 89.717 167.39 88.063 167.22C73.33 165.71 43.982 151.842 27.779 126.868C20.787 116.091 17.201 104.478 17.031 92.517C16.806 105.183 20.398 117.491 27.779 128.868C43.983 153.842 73.331 167.71 88.063 169.22C89.717 169.389 91.483 169.476 93.346 169.476C108.741 169.476 130.601 163.551 147.593 149.418C164.099 135.69 173.556 116.26 174.943 93.23C174.947 93.161 174.951 93.091 174.952 93.022C175.001 91.487 175.003 89.974 174.977 88.476C174.974 89.322 174.98 90.164 174.952 91.022Z" fill="#3D1D0E"/>
<path d="M174.952 93.022C174.95 93.091 174.946 93.161 174.943 93.23C173.556 116.26 164.099 135.69 147.593 149.418C130.601 163.551 108.741 169.476 93.346 169.476C91.483 169.476 89.717 169.39 88.063 169.22C73.33 167.71 43.982 153.842 27.779 128.868C20.787 118.091 17.201 106.478 17.031 94.517C16.806 107.183 20.398 119.491 27.779 130.868C43.983 155.842 73.331 169.71 88.063 171.22C89.717 171.389 91.483 171.476 93.346 171.476C108.741 171.476 130.601 165.551 147.593 151.418C164.099 137.69 173.556 118.26 174.943 95.23C174.947 95.161 174.951 95.091 174.952 95.022C175.001 93.487 175.003 91.974 174.977 90.476C174.974 91.322 174.98 92.164 174.952 93.022Z" fill="#FF9764"/>
</svg>
