<svg width="192" height="192" viewBox="0 0 192 192" fill="none" xmlns="http://www.w3.org/2000/svg">
<path d="M192 0H0V192H192V0Z" fill="#97E6C8"/>
<g filter="url(#filter0_dii)">
<path fill-rule="evenodd" clip-rule="evenodd" d="M141.252 22H133.619C130.189 22 127.409 24.7802 127.409 28.2098V40.1119C127.409 48.8776 123.991 56.1258 117.355 63.8062C110.569 71.5915 100.944 78.9385 90.5546 86.8301L90.5481 86.8351L90.2805 87.0364C80.134 94.6742 69.2851 102.841 60.7227 112.785C51.8715 122.998 45 135.937 45 151.888V163.79C45 167.22 47.7802 170 51.2098 170H58.8427C62.2722 170 65.0524 167.22 65.0524 163.79V151.888C65.0524 143.123 68.4699 135.875 75.1053 128.195C81.8911 120.409 91.5161 113.062 101.906 105.171L101.913 105.165L102.181 104.964C112.328 97.3258 123.177 89.1592 131.739 79.2148C140.59 69.0021 147.462 56.0627 147.462 40.1119V28.2098C147.462 24.7802 144.681 22 141.252 22Z" fill="#1E382F"/>
<path fill-rule="evenodd" clip-rule="evenodd" d="M94.5369 81.1897C87.0305 75.3615 80.252 69.7099 75.1061 63.8062C68.4701 56.1258 65.0524 48.8776 65.0524 40.1119V28.2098C65.0524 24.7802 62.2722 22 58.8426 22L51.2098 22C47.7802 22 45 24.7802 45 28.2098V40.1119C45 56.0627 51.8714 69.0021 60.7225 79.2148C65.5858 84.863 71.1866 89.9376 76.9774 94.6675C80.9823 91.4446 85.0377 88.392 88.9563 85.4424L89.2961 85.1867L89.3073 85.1782C91.0824 83.8299 92.8286 82.5022 94.5369 81.1897ZM97.9246 110.81C99.6333 109.498 101.38 108.17 103.155 106.821L103.165 106.813L103.505 106.558C107.424 103.608 111.479 100.555 115.484 97.3325C121.275 102.062 126.876 107.137 131.739 112.785C140.59 122.998 147.462 135.937 147.462 151.888V163.79C147.462 167.22 144.681 170 141.252 170H133.619C130.189 170 127.409 167.22 127.409 163.79V151.888C127.409 143.123 123.992 135.875 117.356 128.195C112.21 122.291 105.431 116.639 97.9246 110.81Z" fill="#1E382F"/>
<path d="M123.339 155.51C124.444 155.51 125.339 156.406 125.339 157.51V161.79C125.339 162.895 124.444 163.79 123.339 163.79H100.301C99.1961 163.79 98.3007 162.895 98.3007 161.79V157.51C98.3007 156.406 99.1961 155.51 100.301 155.51H123.339Z" fill="#1E382F"/>
<path d="M121.031 138.951C121.789 138.951 122.487 139.377 122.799 140.068C123.521 141.667 124.088 143.281 124.502 144.931C124.801 146.126 123.857 147.231 122.625 147.231H100.301C99.1961 147.231 98.3007 146.335 98.3007 145.231V140.951C98.3007 139.846 99.1961 138.951 100.301 138.951H121.031Z" fill="#1E382F"/>
<path d="M107.915 122.392C108.411 122.392 108.891 122.576 109.257 122.912C111.649 125.111 113.843 127.314 115.792 129.551C116.175 129.993 115.857 130.671 115.272 130.671H100.301C99.1961 130.671 98.3007 129.776 98.3007 128.671V124.392C98.3007 123.287 99.1961 122.392 100.301 122.392H107.915Z" fill="#1E382F"/>
<path d="M114.779 60.2937C115.911 60.2937 116.533 61.5916 115.793 62.4486C114.154 64.3282 112.343 66.1847 110.387 68.0346C110.019 68.3822 109.531 68.5734 109.025 68.5734H100.301C99.1961 68.5734 98.3007 67.678 98.3007 66.5734V62.2937C98.3007 61.1891 99.1961 60.2937 100.301 60.2937H114.779Z" fill="#1E382F"/>
<path d="M122.86 43.7343C124.061 43.7343 124.998 44.7885 124.754 45.9651C124.411 47.6205 123.917 49.2359 123.27 50.8318C122.976 51.5583 122.259 52.014 121.475 52.014H100.301C99.1961 52.014 98.3007 51.1186 98.3007 50.014V45.7343C98.3007 44.6297 99.1961 43.7343 100.301 43.7343H122.86Z" fill="#1E382F"/>
<path d="M124.366 27.1748C124.917 27.1748 125.339 27.6588 125.339 28.2098V33.4545C125.339 34.5591 124.444 35.4545 123.339 35.4545H100.301C99.1961 35.4545 98.3007 34.5591 98.3007 33.4545V29.1748C98.3007 28.0702 99.1961 27.1748 100.301 27.1748H124.366Z" fill="#1E382F"/>
<path d="M83.4363 68.5734C82.9303 68.5734 82.4425 68.3822 82.0749 68.0346C80.1185 66.1847 78.3072 64.3282 76.6686 62.4486C75.9283 61.5916 76.5505 60.2937 77.683 60.2937H92.1608C93.2654 60.2937 94.1608 61.1891 94.1608 62.2937V66.5734C94.1608 67.678 93.2654 68.5734 92.1608 68.5734H83.4363Z" fill="#1E382F"/>
<path d="M69.1224 35.4545C68.0178 35.4545 67.1224 34.5591 67.1224 33.4545V28.2098C67.1224 27.6588 67.5449 27.1748 68.0959 27.1748H92.1608C93.2654 27.1748 94.1608 28.0702 94.1608 29.1748V33.4545C94.1608 34.5591 93.2654 35.4545 92.1608 35.4545H69.1224Z" fill="#1E382F"/>
<path d="M70.9868 52.014C70.2029 52.014 69.4856 51.5583 69.1911 50.8318C68.5442 49.2359 68.0503 47.6205 67.7076 45.9651C67.464 44.7885 68.4002 43.7343 69.6017 43.7343H92.1608C93.2654 43.7343 94.1608 44.6297 94.1608 45.7343V50.014C94.1608 51.1186 93.2654 52.014 92.1608 52.014H70.9868Z" fill="#1E382F"/>
<path d="M77.1892 130.671C76.6048 130.671 76.287 129.993 76.6691 129.551C78.6187 127.314 80.8127 125.111 83.2048 122.912C83.5706 122.576 84.0502 122.392 84.547 122.392H92.1608C93.2654 122.392 94.1608 123.287 94.1608 124.392V128.671C94.1608 129.776 93.2654 130.671 92.1608 130.671H77.1892Z" fill="#1E382F"/>
<path d="M69.8361 147.231C68.6044 147.231 67.6608 146.126 67.96 144.931C68.3732 143.281 68.9401 141.667 69.6625 140.068C69.9746 139.377 70.6727 138.951 71.4308 138.951H92.1608C93.2654 138.951 94.1608 139.846 94.1608 140.951V145.231C94.1608 146.335 93.2654 147.231 92.1608 147.231H69.8361Z" fill="#1E382F"/>
<path d="M67.1224 161.79C67.1224 162.895 68.0178 163.79 69.1224 163.79H92.1608C93.2654 163.79 94.1608 162.895 94.1608 161.79V157.51C94.1608 156.406 93.2654 155.51 92.1608 155.51H69.1224C68.0178 155.51 67.1224 156.406 67.1224 157.51V161.79Z" fill="#1E382F"/>
</g>
<defs>
<filter id="filter0_dii" x="45" y="22" width="102.462" height="150" filterUnits="userSpaceOnUse" color-interpolation-filters="sRGB">
<feFlood flood-opacity="0" result="BackgroundImageFix"/>
<feColorMatrix in="SourceAlpha" type="matrix" values="0 0 0 0 0 0 0 0 0 0 0 0 0 0 0 0 0 0 127 0"/>
<feOffset dy="2"/>
<feColorMatrix type="matrix" values="0 0 0 0 0.364706 0 0 0 0 0.654902 0 0 0 0 0.545098 0 0 0 0.8 0"/>
<feBlend mode="normal" in2="BackgroundImageFix" result="effect1_dropShadow"/>
<feBlend mode="normal" in="SourceGraphic" in2="effect1_dropShadow" result="shape"/>
<feColorMatrix in="SourceAlpha" type="matrix" values="0 0 0 0 0 0 0 0 0 0 0 0 0 0 0 0 0 0 127 0" result="hardAlpha"/>
<feOffset dy="2"/>
<feComposite in2="hardAlpha" operator="arithmetic" k2="-1" k3="1"/>
<feColorMatrix type="matrix" values="0 0 0 0 1 0 0 0 0 1 0 0 0 0 1 0 0 0 0.1 0"/>
<feBlend mode="normal" in2="shape" result="effect2_innerShadow"/>
<feColorMatrix in="SourceAlpha" type="matrix" values="0 0 0 0 0 0 0 0 0 0 0 0 0 0 0 0 0 0 127 0" result="hardAlpha"/>
<feOffset dy="-2"/>
<feComposite in2="hardAlpha" operator="arithmetic" k2="-1" k3="1"/>
<feColorMatrix type="matrix" values="0 0 0 0 0.0823529 0 0 0 0 0.156863 0 0 0 0 0.129412 0 0 0 1 0"/>
<feBlend mode="normal" in2="effect2_innerShadow" result="effect3_innerShadow"/>
</filter>
</defs>
</svg>
